<svg xmlns="http://www.w3.org/2000/svg" viewBox="0 9.470000267028809 243.9199981689453 36.37999725341797" data-asc="0.9052734375" width="243.9199981689453" height="36.37999725341797"><defs/><g><g fill="#000000"><g transform="translate(0, 0)"><path d="M0 45.26L0 9.47L24.15 9.47L24.15 13.70L4.74 13.70L4.74 24.78L21.53 24.78L21.53 29.00L4.74 29.00L4.74 45.26L0 45.26ZM28.10 32.30Q28.10 25.10 32.10 21.63Q35.45 18.75 40.26 18.75Q45.61 18.75 49.00 22.25Q52.39 25.76 52.39 31.93Q52.39 36.94 50.89 39.81Q49.39 42.68 46.52 44.26Q43.65 45.85 40.26 45.85Q34.81 45.85 31.46 42.36Q28.10 38.87 28.10 32.30M32.62 32.30Q32.62 37.28 34.79 39.76Q36.96 42.24 40.26 42.24Q43.53 42.24 45.70 39.75Q47.88 37.26 47.88 32.15Q47.88 27.34 45.69 24.87Q43.51 22.39 40.26 22.39Q36.96 22.39 34.79 24.85Q32.62 27.32 32.62 32.30ZM55.91 32.30Q55.91 25.10 59.91 21.63Q63.26 18.75 68.07 18.75Q73.41 18.75 76.81 22.25Q80.20 25.76 80.20 31.93Q80.20 36.94 78.70 39.81Q77.20 42.68 74.33 44.26Q71.46 45.85 68.07 45.85Q62.62 45.85 59.27 42.36Q55.91 38.87 55.91 32.30M60.42 32.30Q60.42 37.28 62.60 39.76Q64.77 42.24 68.07 42.24Q71.34 42.24 73.51 39.75Q75.68 37.26 75.68 32.15Q75.68 27.34 73.50 24.87Q71.31 22.39 68.07 22.39Q64.77 22.39 62.60 24.85Q60.42 27.32 60.42 32.30ZM102.17 45.26L102.17 41.99Q99.71 45.85 94.92 45.85Q91.82 45.85 89.22 44.14Q86.62 42.43 85.19 39.37Q83.76 36.30 83.76 32.32Q83.76 28.44 85.06 25.28Q86.35 22.12 88.94 20.43Q91.53 18.75 94.73 18.75Q97.07 18.75 98.90 19.74Q100.73 20.73 101.88 22.31L101.88 9.47L106.25 9.47L106.25 45.26L102.17 45.26M88.28 32.32Q88.28 37.30 90.38 39.77Q92.48 42.24 95.34 42.24Q98.22 42.24 100.23 39.88Q102.25 37.52 102.25 32.69Q102.25 27.37 100.20 24.88Q98.14 22.39 95.14 22.39Q92.21 22.39 90.25 24.78Q88.28 27.17 88.28 32.32ZM113.57 45.26L113.57 9.47L120.70 9.47L129.17 34.81Q130.35 38.35 130.88 40.11Q131.49 38.16 132.79 34.38L141.36 9.47L147.73 9.47L147.73 45.26L143.16 45.26L143.16 15.31L132.76 45.26L128.49 45.26L118.14 14.79L118.14 45.26L113.57 45.26ZM171.73 42.07Q169.29 44.14 167.03 45.00Q164.77 45.85 162.18 45.85Q157.91 45.85 155.62 43.76Q153.32 41.67 153.32 38.43Q153.32 36.52 154.19 34.95Q155.05 33.37 156.46 32.42Q157.86 31.47 159.62 30.98Q160.91 30.64 163.53 30.32Q168.85 29.69 171.36 28.81Q171.39 27.91 171.39 27.66Q171.39 24.98 170.14 23.88Q168.46 22.39 165.14 22.39Q162.04 22.39 160.56 23.47Q159.08 24.56 158.37 27.32L154.08 26.73Q154.66 23.97 156.01 22.28Q157.35 20.58 159.89 19.67Q162.43 18.75 165.77 18.75Q169.09 18.75 171.17 19.53Q173.24 20.31 174.22 21.50Q175.20 22.68 175.59 24.49Q175.81 25.61 175.81 28.54L175.81 34.40Q175.81 40.53 176.09 42.15Q176.37 43.77 177.20 45.26L172.61 45.26Q171.92 43.90 171.73 42.07M171.36 32.25Q168.97 33.23 164.18 33.91Q161.47 34.30 160.35 34.79Q159.23 35.28 158.62 36.22Q158.01 37.16 158.01 38.31Q158.01 40.06 159.34 41.24Q160.67 42.41 163.23 42.41Q165.77 42.41 167.75 41.30Q169.73 40.19 170.65 38.26Q171.36 36.77 171.36 33.86L171.36 32.25ZM182.62 45.26L182.62 19.34L186.57 19.34L186.57 23.02Q189.43 18.75 194.82 18.75Q197.17 18.75 199.13 19.59Q201.10 20.43 202.08 21.80Q203.05 23.17 203.44 25.05Q203.69 26.27 203.69 29.32L203.69 45.26L199.29 45.26L199.29 29.49Q199.29 26.81 198.78 25.48Q198.27 24.15 196.96 23.35Q195.65 22.56 193.90 22.56Q191.09 22.56 189.05 24.34Q187.01 26.12 187.01 31.10L187.01 45.26L182.62 45.26ZM210.45 14.53L210.45 9.47L214.84 9.47L214.84 14.53L210.45 14.53M210.45 45.26L210.45 19.34L214.84 19.34L214.84 45.26L210.45 45.26ZM238.45 42.07Q236.01 44.14 233.75 45.00Q231.49 45.85 228.91 45.85Q224.63 45.85 222.34 43.76Q220.04 41.67 220.04 38.43Q220.04 36.52 220.91 34.95Q221.78 33.37 223.18 32.42Q224.58 31.47 226.34 30.98Q227.64 30.64 230.25 30.32Q235.57 29.69 238.09 28.81Q238.11 27.91 238.11 27.66Q238.11 24.98 236.87 23.88Q235.18 22.39 231.86 22.39Q228.76 22.39 227.28 23.47Q225.81 24.56 225.10 27.32L220.80 26.73Q221.39 23.97 222.73 22.28Q224.07 20.58 226.61 19.67Q229.15 18.75 232.50 18.75Q235.82 18.75 237.89 19.53Q239.97 20.31 240.94 21.50Q241.92 22.68 242.31 24.49Q242.53 25.61 242.53 28.54L242.53 34.40Q242.53 40.53 242.81 42.15Q243.09 43.77 243.92 45.26L239.33 45.26Q238.65 43.90 238.45 42.07M238.09 32.25Q235.69 33.23 230.91 33.91Q228.20 34.30 227.08 34.79Q225.95 35.28 225.34 36.22Q224.73 37.16 224.73 38.31Q224.73 40.06 226.06 41.24Q227.39 42.41 229.96 42.41Q232.50 42.41 234.47 41.30Q236.45 40.19 237.38 38.26Q238.09 36.77 238.09 33.86L238.09 32.25Z"/></g></g></g></svg>